<svg id="Layer_1" data-name="Layer 1" xmlns="http://www.w3.org/2000/svg" viewBox="0 0 80 80"><title>icon</title><path d="M73.46,21.93a34.82,34.82,0,0,0,1.3-9.54A31.52,31.52,0,0,0,72.31,0a18.22,18.22,0,0,0-9.09,2.22,49.59,49.59,0,0,0-9,6.87A48.74,48.74,0,0,0,40.77,7.27a54.85,54.85,0,0,0-14.86,2,51.83,51.83,0,0,0-9.08-7A18.23,18.23,0,0,0,7.69,0,31.52,31.52,0,0,0,5.24,12.39a35.68,35.68,0,0,0,1.3,9.66Q0,31.08,0,44.55q0,11.82,3,18.8a23.92,23.92,0,0,0,4.14,6.54,21.24,21.24,0,0,0,5.81,4.6,45.89,45.89,0,0,0,6.59,2.92,36.66,36.66,0,0,0,7.33,1.71q4,.54,7.09.71t6.83.17c2.95,0,5.62-.09,8-.26A60.4,60.4,0,0,0,57,78.5a37,37,0,0,0,8.18-2.7A26,26,0,0,0,72,70.91a22.75,22.75,0,0,0,5.07-7.56q2.93-7,2.93-18.8Q80,31,73.46,21.93ZM67.69,63.27a15.88,15.88,0,0,1-3.89,5.85,17.6,17.6,0,0,1-5.87,3.41A30.48,30.48,0,0,1,51.2,74.2a57.76,57.76,0,0,1-7.16.4H36a57.65,57.65,0,0,1-7.16-.4,30.48,30.48,0,0,1-6.73-1.67,17.6,17.6,0,0,1-5.87-3.41,15.88,15.88,0,0,1-3.89-5.85,22.68,22.68,0,0,1-1.54-8.72A19.76,19.76,0,0,1,14.09,43a10.39,10.39,0,0,1,9-4.77,79.86,79.86,0,0,1,9.37,1.19A41.74,41.74,0,0,0,40,40a41.74,41.74,0,0,0,7.55-.63,83,83,0,0,1,9.37-1.19,10.4,10.4,0,0,1,9,4.77,19.85,19.85,0,0,1,3.32,11.6A22.64,22.64,0,0,1,67.69,63.27Z"/><path d="M28.1,45.57a4.1,4.1,0,0,0-7,0,11.72,11.72,0,0,0-2.07,4.31,18.4,18.4,0,0,0,0,9.32,11.84,11.84,0,0,0,2.07,4.32,4.11,4.11,0,0,0,7,0,11.84,11.84,0,0,0,2.07-4.32,19,19,0,0,0,.6-4.65,19.18,19.18,0,0,0-.6-4.67A11.87,11.87,0,0,0,28.1,45.57Z"/><path d="M58.87,45.57a4.1,4.1,0,0,0-7,0,11.72,11.72,0,0,0-2.07,4.31,18.4,18.4,0,0,0,0,9.32,11.84,11.84,0,0,0,2.07,4.32,4.11,4.11,0,0,0,7,0,11.84,11.84,0,0,0,2.07-4.32,18.4,18.4,0,0,0,0-9.32A11.87,11.87,0,0,0,58.87,45.57Z"/></svg>