<svg id="Layer_1" data-name="Layer 1" xmlns="http://www.w3.org/2000/svg" viewBox="0 0 80 80"><title>icon</title><path d="M50,58.33H30c-.92,0-1.66,1.12-1.66,2.5s.74,2.5,1.66,2.5H50c.92,0,1.67-1.12,1.67-2.5S50.91,58.33,50,58.33Z"/><path d="M50,66.67H30c-.92,0-1.66,1.12-1.66,2.5s.74,2.5,1.66,2.5H50c.92,0,1.67-1.12,1.67-2.5S50.91,66.67,50,66.67Z"/><path d="M45,75H35c-.92,0-1.67,1.12-1.67,2.5S34.08,80,35,80H45c.92,0,1.67-1.12,1.67-2.5S45.91,75,45,75Z"/><path d="M63,16.86a26.1,26.1,0,0,0-5.5-9.09A23.65,23.65,0,0,0,35.38.45,24.1,24.1,0,0,0,22.47,7.77,26.49,26.49,0,0,0,17,16.85a24.52,24.52,0,0,0-1.82,11,25.24,25.24,0,0,0,3.67,11c.5.83,1.5,2.4,3.51,5.23.5.72.94,1.3,1.31,1.81a17.57,17.57,0,0,1,2,3.07,20.19,20.19,0,0,1,1.59,4.72,1.67,1.67,0,0,0,1.63,1.34H51.17a1.67,1.67,0,0,0,1.63-1.37,17.43,17.43,0,0,1,1.57-4.66,21.75,21.75,0,0,1,2.08-3.22c.36-.48.76-1,1.23-1.7,1.38-2,2.58-3.63,3.5-5.23a25.34,25.34,0,0,0,3.67-10.95A24.41,24.41,0,0,0,63,16.86Z"/></svg>