<svg id="Layer_1" data-name="Layer 1" xmlns="http://www.w3.org/2000/svg" viewBox="0 0 80 80"><title>icon</title><path d="M80,15.2a34.47,34.47,0,0,1-9.45,2.59,16.25,16.25,0,0,0,7.21-9.07,32.66,32.66,0,0,1-10.4,4,16.49,16.49,0,0,0-28,15A46.44,46.44,0,0,1,5.57,10.49a16.59,16.59,0,0,0-2.24,8.29,16.41,16.41,0,0,0,7.28,13.63,16.15,16.15,0,0,1-7.41-2v.18A16.47,16.47,0,0,0,16.34,46.68a16.14,16.14,0,0,1-4.3.54,14.43,14.43,0,0,1-3.1-.28A16.55,16.55,0,0,0,24.26,58.37a33,33,0,0,1-20.34,7A31.64,31.64,0,0,1,0,65.14,46.24,46.24,0,0,0,25.16,72.5c30.18,0,46.68-25,46.68-46.67,0-.72,0-1.42-.06-2.12A32.62,32.62,0,0,0,80,15.2Z"/></svg>