<svg id="Layer_1" data-name="Layer 1" xmlns="http://www.w3.org/2000/svg" viewBox="0 0 80 80"><title>icon</title><path d="M79.8,23.52a29.44,29.44,0,0,0-1.86-9.71A20.5,20.5,0,0,0,66.23,2.1,29.55,29.55,0,0,0,56.52.24C52.24,0,50.88,0,40,0S27.79,0,23.52.23a28.87,28.87,0,0,0-9.7,1.86,19.53,19.53,0,0,0-7.1,4.62,19.77,19.77,0,0,0-4.61,7.08A29.55,29.55,0,0,0,.25,23.5C.05,27.78,0,29.14,0,40S.05,52.23.23,56.5a29.5,29.5,0,0,0,1.86,9.71A20.52,20.52,0,0,0,13.8,77.91a29,29,0,0,0,9.71,1.86C27.78,80,29.14,80,40,80s12.22-.05,16.49-.24a28.93,28.93,0,0,0,9.71-1.86,20.47,20.47,0,0,0,11.71-11.7,29.55,29.55,0,0,0,1.86-9.71C80,52.23,80,50.87,80,40S80,27.78,79.8,23.52ZM72.59,56.19a22.13,22.13,0,0,1-1.37,7.42,13.32,13.32,0,0,1-7.6,7.6,22.2,22.2,0,0,1-7.43,1.37c-4.22.19-5.48.24-16.16.24s-12,0-16.16-.24a22.14,22.14,0,0,1-7.43-1.37,12.3,12.3,0,0,1-4.59-3,12.46,12.46,0,0,1-3-4.59A22.26,22.26,0,0,1,7.49,56.2C7.3,52,7.25,50.72,7.25,40s0-12,.24-16.16a22.14,22.14,0,0,1,1.37-7.43,12.2,12.2,0,0,1,3-4.59,12.41,12.41,0,0,1,4.6-3A21.93,21.93,0,0,1,23.88,7.5c4.22-.19,5.49-.24,16.17-.24s12,0,16.16.24a21.75,21.75,0,0,1,7.42,1.37,12.26,12.26,0,0,1,4.6,3,12.5,12.5,0,0,1,3,4.59,22.2,22.2,0,0,1,1.37,7.43c.19,4.22.24,5.48.24,16.16S72.78,52,72.59,56.19Z"/><path d="M40,19.45A20.56,20.56,0,1,0,60.57,40,20.57,20.57,0,0,0,40,19.45Zm0,33.89A13.34,13.34,0,1,1,53.35,40,13.33,13.33,0,0,1,40,53.34Z"/><path d="M66.18,18.64a4.8,4.8,0,1,1-4.8-4.8A4.8,4.8,0,0,1,66.18,18.64Z"/></svg>