<svg id="Layer_1" data-name="Layer 1" xmlns="http://www.w3.org/2000/svg" viewBox="0 0 80 80"><title>icon</title><path d="M73,19.61H58.89V13.68a5.07,5.07,0,0,0-5.06-5.06H26.17a5.07,5.07,0,0,0-5.06,5.06v5.93H7a7.07,7.07,0,0,0-7,7.14V37.87A3.12,3.12,0,0,0,3.08,41h.6v24A6.33,6.33,0,0,0,10,71.38H70a6.33,6.33,0,0,0,6.31-6.32V41h.6A3.12,3.12,0,0,0,80,37.87V26.75A7.07,7.07,0,0,0,73,19.61ZM25.23,13.68a1,1,0,0,1,.94-.95H53.83a1,1,0,0,1,.94.95v5.93H25.23ZM45,48.12A1.92,1.92,0,0,1,43.1,50H36.9A1.92,1.92,0,0,1,35,48.12v-14A1.92,1.92,0,0,1,36.9,32.2h6.2A1.92,1.92,0,0,1,45,34.11Z"/></svg>